<?xml version="1.0" ?><svg id="Layer_1" style="enable-background:new 0 0 32 30;" version="1.1" viewBox="0 0 32 30" xml:space="preserve" xmlns="http://www.w3.org/2000/svg"><path d="M25.7,10V6.4c0-1.4-1.1-2.5-2.5-2.5H2.5C1.1,3.9,0,5,0,6.4v14.3c0,1.4,1.1,2.5,2.5,2.5h10c0-0.3-0.1-0.7-0.1-1s0-0.6,0-1  h-10c-0.3,0-0.5-0.2-0.5-0.5V6.4C2,6.1,2.2,5.9,2.5,5.9h20.7c0.3,0,0.5,0.2,0.5,0.5v4.8v4.7v0.8c1,1.3,1.8,2.8,2,4.5l0,0v-4.1  l6.3,3.7V6.3L25.7,10z M30,17.2l-4.3-2.5v-2.4L30,9.8V17.2z"/><path d="M20.1,21.1l2,0l0,2l-2,0l0,2l-2,0l0-2l-2,0l0-2l2,0l0-2l2,0L20.1,21.1z M18.9,16.3c-3.3,0-5.9,2.7-5.8,6  c0,3.3,2.7,5.9,6,5.8c3.3,0,5.9-2.7,5.8-6C24.9,18.9,22.2,16.2,18.9,16.3z M19,26.1c-2.2,0-3.9-1.6-4-3.8c0-2.2,1.7-3.9,3.9-4  c2.2,0,3.9,1.8,3.9,3.8C22.9,24.4,21.3,26,19,26.1z"/></svg>
